PathFileType	4	(X/Y/Z)	C:\Users\WrightLab\Desktop\Jo\P3_4.trc
DataRate	CameraRate	NumFrames	NumMarkers	Units	OrigDataRate	OrigDataStartFrame	OrigNumFrames
100.00	100.00	       21	19	mm	100.00	80	       639
Frame#	Time	Headset_Front			Headset_Back			Headset_Left			Headset_Right			Left_Shoulder			Right_Shoulder			Sternum			C7			Left Elbow			Right Elbow			Left Wrist			Right Wrist			Left ASIS			Right ASIS			S2			Left Knee			Right Knee			Left Ankle			Right Ankle			
		X1	Y1	Z1	X2	Y2	Z2	X3	Y3	Z3	X4	Y4	Z4	X5	Y5	Z5	X6	Y6	Z6	X7	Y7	Z7	X8	Y8	Z8	X9	Y9	Z9	X10	Y10	Z10	X11	Y11	Z11	X12	Y12	Z12	X13	Y13	Z13	X14	Y14	Z14	X15	Y15	Z15	X16	Y16	Z16	X17	Y17	Z17	X18	Y18	Z18	X19	Y19	Z19	

80	0.790	-651.10864	1496.44531	-1244.52319	-644.58447	70.42545	-1303.76172							-345.52481	1307.85999	-1310.45044	-683.91895	1301.36621	-1415.44116	-545.77930	1187.26965	-1235.21167				-275.58035	977.78027	-1276.81653				-314.58719	799.36096	-1168.99377	-809.96686	778.37024	-1313.58850	-434.62747	809.35992	-1245.60583	-392.46207	383.08807	-1291.90112							-667.08502	410.13330	-1273.98584	-313.96341	180.58803	-1562.33984				
81	0.800	-654.56677	1497.07886	-1237.84375	-644.86542	69.79877	-1304.85852							-348.65424	1306.40149	-1300.26221	-688.04663	1301.64514	-1407.98047	-549.26251	1187.53796	-1229.46155				-280.03238	978.16638	-1270.52869				-319.68954	800.84009	-1162.00928	-814.17041	779.12360	-1303.46167	-435.99896	809.91461	-1238.81689	-399.63358	384.04062	-1276.08960							-669.96906	409.84637	-1270.36499	-320.51987	185.68735	-1543.36487				
82	0.810	-657.82953	1497.91321	-1231.43433	-645.06665	69.33016	-1305.63831							-352.67029	1307.23108	-1295.59619	-692.03461	1301.84973	-1400.61084	-551.99573	1187.33142	-1223.57385				-283.84637	978.02136	-1262.94873				-324.60953	801.64307	-1153.59155	-819.44421	781.52203	-1294.31006	-438.15936	810.93018	-1229.78003	-406.15729	386.02902	-1257.51111							-671.05469	409.69885	-1267.49414	-326.76624	190.72142	-1526.18530				
83	0.820	-661.07373	1498.42603	-1224.95972	-645.25391	68.93290	-1306.37524							-356.56598	1308.01575	-1291.01709	-695.68103	1302.73999	-1395.20386	-554.67426	1186.79736	-1216.92126				-287.84592	978.78894	-1257.11963	-683.43500	832.49512	-1282.01733	-329.20630	803.04102	-1146.86243	-825.12488	784.00378	-1283.64551	-441.06708	810.79803	-1224.85620	-413.58624	387.80951	-1239.41797							-671.83081	409.12466	-1265.62476	-332.14505	192.00948	-1517.06409				
84	0.830	-664.14850	1498.70654	-1217.66675	-645.42365	68.01701	-1306.17163							-359.25549	1309.08936	-1288.36865	-699.21344	1303.58020	-1389.83228	-556.71442	1187.15234	-1210.79871				-291.53601	978.84015	-1250.68872				-333.39035	803.70117	-1139.89758	-830.67181	785.63232	-1272.67200	-443.39459	812.45612	-1220.31592	-421.08142	391.35397	-1223.82556							-674.19690	408.28317	-1262.43274	-340.38556	197.16557	-1493.01086				
85	0.840	-667.20447	1498.97375	-1211.08081	-645.47223	67.89477	-1306.35718							-362.66135	1307.98010	-1279.02808	-703.23004	1302.22729	-1378.63660	-559.24939	1186.52161	-1205.11963				-295.63196	978.15454	-1242.42957				-337.92416	804.83148	-1132.73047	-836.46948	787.69202	-1262.21362	-446.30228	812.88776	-1214.67896	-428.57278	394.33817	-1207.47925							-675.86780	407.41962	-1261.25830	-347.12692	200.36363	-1474.41724				
86	0.850	-670.09509	1499.25330	-1204.54529	-645.61450	67.65268	-1306.93481							-366.29752	1308.63110	-1273.88440	-707.06146	1303.20703	-1373.02734	-562.43378	1186.14233	-1199.80591				-299.50113	979.34033	-1237.75867	-692.19092	833.59265	-1264.65784	-341.78308	806.15302	-1126.17126	-840.44971	789.24011	-1251.95605	-449.30716	814.18616	-1206.00903	-434.26981	397.50272	-1189.18445							-677.49268	406.99377	-1259.21667	-354.25922	202.12195	-1453.28687				
87	0.860	-672.99823	1499.30566	-1197.27942	-645.65790	67.52299	-1307.09460							-368.99088	1309.29797	-1269.50745	-710.78204	1304.22339	-1367.16064	-564.03162	1186.26392	-1193.75610				-302.87616	980.11768	-1231.90479				-346.31396	807.15900	-1118.19470	-843.46808	790.34979	-1243.16052	-453.22745	815.05664	-1202.61304										-680.17285	407.53329	-1256.99890	-362.12961	201.37766	-1435.14148				
88	0.870	-675.91595	1499.32825	-1190.39587	-645.75720	67.35035	-1307.49658							-371.87497	1310.04871	-1264.72107	-714.53125	1302.88586	-1355.67065	-567.09442	1186.22876	-1187.73828				-306.33658	980.08856	-1225.21155				-350.66168	807.86584	-1112.26343	-850.06549	793.07684	-1232.23474	-456.74945	816.13324	-1200.96997										-681.34277	407.73822	-1256.19507	-370.81097	199.76170	-1417.15894				
89	0.880	-678.63263	1499.54639	-1183.59766	-645.87268	67.16780	-1307.96960							-375.60745	1311.42200	-1260.71362	-717.18481	1303.70630	-1350.50989	-568.99817	1186.49890	-1182.38550				-310.11331	980.45038	-1218.74475				-354.89844	809.09937	-1105.42419	-853.10345	794.41113	-1222.59875	-458.11166	818.28241	-1189.76868										-682.37500	407.36032	-1254.20032	-377.58914	198.98846	-1394.68408				
90	0.890	-681.29736	1499.58765	-1176.53162	-646.31525	67.32167	-1306.16394							-377.20953	1311.07214	-1253.63562	-720.06262	1304.71094	-1345.21899	-571.58868	1186.64526	-1175.92664				-313.33109	981.24731	-1213.16150				-358.67026	811.19965	-1099.02832	-857.31671	796.86835	-1212.49097	-461.24799	820.18256	-1183.86829										-683.49451	406.65805	-1252.92273	-387.06070	196.88989	-1375.48767				
91	0.900	-683.91785	1499.86499	-1169.69934	-646.35132	67.27112	-1306.31348							-380.28818	1310.98755	-1245.54468	-723.71326	1306.20984	-1339.76965	-572.94763	1186.93335	-1169.59607				-315.79257	982.42432	-1208.96948	-706.51147	836.25385	-1238.06238	-362.46518	811.69653	-1091.73779	-861.02985	797.73499	-1202.74988	-465.29105	822.04218	-1178.57886							-469.62137	411.91061	-1115.81238	-683.98889	405.96921	-1251.65015	-393.66040	192.99379	-1355.64063				
92	0.910	-686.49756	1500.04993	-1162.44800	-646.39648	67.20656	-1306.50049							-382.29361	1312.21899	-1241.93164	-726.15906	1305.58948	-1330.84497	-575.49786	1188.21631	-1162.86267				-319.19824	982.86639	-1202.50342				-365.65176	813.55505	-1086.46216	-865.76630	801.29846	-1194.37659	-468.41412	821.82684	-1174.86646							-475.86795	417.22845	-1102.18860	-685.92078	406.10019	-1250.45337	-404.02017	188.13016	-1339.22266				
93	0.920	-688.97198	1500.22705	-1155.43115	-646.42719	67.18027	-1306.63257							-385.46365	1313.12012	-1236.36487	-729.23920	1306.27808	-1323.92505	-577.27887	1189.32837	-1157.28271				-321.81369	983.69293	-1197.50732	-816.39301	964.07330	-1339.68884	-369.43802	814.77142	-1080.25122	-869.29584	801.93762	-1184.44568	-470.78687	823.84326	-1166.29211	-710.32050	834.77338	-1224.67896				-482.31482	421.80518	-1086.47131	-686.65503	405.61960	-1248.76831	-412.06421	183.22865	-1318.61731				
94	0.930													-387.92853	1314.43103	-1232.40930	-732.16223	1306.78369	-1316.72913	-579.65784	1190.10864	-1151.51392				-324.69263	983.77728	-1191.10999	-819.70715	964.67413	-1331.93933	-372.71313	816.05634	-1074.26135	-872.29114	803.60992	-1176.04504	-474.00189	823.93182	-1161.00220							-488.14694	423.44476	-1074.98010				-420.50446	179.45155	-1295.18640				
95	0.940													-390.38181	1315.75842	-1228.38672	-734.38324	1308.76477	-1313.93018	-582.91290	1189.97253	-1144.01318				-327.23477	984.94556	-1187.14600	-822.49866	965.39673	-1324.05469	-374.63815	817.61267	-1068.49866	-875.94348	805.16095	-1166.75745	-475.59488	826.09393	-1151.88330							-494.36258	427.95792	-1062.40234				-429.86896	173.76985	-1273.75940				
96	0.950													-393.51398	1316.66199	-1222.75684	-737.20093	1307.42261	-1302.74792	-584.77124	1191.23413	-1138.34387				-329.62781	986.05591	-1183.18982	-825.26306	965.83441	-1316.06152	-377.28452	818.18213	-1062.04504	-879.22229	806.95117	-1158.68201	-478.56635	826.12866	-1147.55212							-500.17584	432.07172	-1051.76135				-438.26559	168.34241	-1251.75098				
97	0.960													-394.97092	1314.93616	-1211.54785	-740.24146	1308.38818	-1296.60583	-587.49646	1191.61267	-1131.74658				-331.86908	986.57971	-1178.32458	-827.79517	966.19861	-1308.30518	-379.86734	819.57281	-1056.69373	-881.91736	807.97485	-1150.42297	-480.53445	827.23193	-1142.73462							-504.49777	434.49680	-1039.45032				-447.86673	161.72852	-1228.78955				
98	0.970													-397.96414	1316.25537	-1207.54944	-742.34753	1309.20813	-1290.63037	-590.08740	1192.28101	-1125.13989				-334.19870	986.25085	-1171.71521	-830.17725	966.45135	-1300.55835	-381.92081	820.45990	-1050.04761	-885.29108	808.71088	-1140.92944	-483.35419	827.45734	-1136.79553							-509.90405	437.05875	-1029.85339				-457.58014	153.58083	-1206.38220				
99	0.980				-702.73346	1502.47327	-1112.81433							-400.64008	1317.03979	-1202.49011	-745.12183	1309.37097	-1283.36194	-592.17023	1191.85718	-1118.30334				-336.14572	985.88782	-1165.57153	-832.51111	966.78345	-1293.04382	-384.33563	820.86279	-1045.10156	-887.78815	809.31409	-1133.21875	-486.97665	829.05078	-1130.38269							-515.02417	439.33078	-1020.04602				-466.11057	148.39696	-1183.38831				
100	0.990				-704.98083	1502.65771	-1105.57727							-402.87457	1316.29224	-1193.95801	-748.12653	1309.09448	-1276.04602	-594.68756	1192.45190	-1112.08447				-337.77258	985.90619	-1160.39429	-834.76093	966.70154	-1285.13074	-386.22021	820.85010	-1039.38416	-889.36200	809.44604	-1125.03784	-488.08139	829.20331	-1122.89978							-519.47803	442.67041	-1010.17828				-476.79675	141.37079	-1161.15063				
